<svg width="212" height="283" viewBox="0 0 212 283" fill="none" xmlns="http://www.w3.org/2000/svg">
<path d="M102.247 203L104.072 204.709L104.072 204.709L102.247 203ZM197.247 81L199.414 82.2467L199.664 81.8122L199.727 81.315L197.247 81ZM16.4996 271.061C19.1198 269.097 22.0866 266.969 25.3234 264.698L22.4522 260.605C19.1926 262.891 16.1788 265.053 13.5004 267.061L16.4996 271.061ZM29.8017 261.582C35.3793 257.728 41.4885 253.584 47.8842 249.186L45.0512 245.066C38.7074 249.428 32.5268 253.621 26.9589 257.469L29.8017 261.582ZM52.4 246.07C58.3353 241.957 64.4021 237.679 70.3265 233.321L67.3637 229.294C61.4915 233.613 55.4667 237.862 49.5523 241.96L52.4 246.07ZM74.7454 230.034C80.8078 225.47 86.6558 220.833 91.9799 216.214L88.7036 212.437C83.4917 216.958 77.7394 221.522 71.7383 226.039L74.7454 230.034ZM96.1288 212.519C98.9846 209.903 101.652 207.293 104.072 204.709L100.422 201.291C98.1056 203.766 95.5318 206.285 92.7512 208.832L96.1288 212.519ZM104.072 204.709C106.412 202.21 108.758 199.676 111.107 197.112L107.421 193.735C105.084 196.285 102.749 198.806 100.422 201.291L104.072 204.709ZM114.595 193.287C119.191 188.217 123.787 183.044 128.345 177.803L124.572 174.522C120.037 179.736 115.464 184.884 110.891 189.928L114.595 193.287ZM131.732 173.888C136.238 168.652 140.697 163.36 145.073 158.047L141.214 154.868C136.862 160.152 132.426 165.417 127.942 170.626L131.732 173.888ZM148.354 154.041C152.759 148.632 157.068 143.211 161.242 137.818L157.288 134.758C153.14 140.116 148.857 145.505 144.477 150.884L148.354 154.041ZM164.4 133.71C168.682 128.099 172.808 122.528 176.733 117.042L172.667 114.132C168.774 119.573 164.679 125.103 160.425 130.676L164.4 133.71ZM179.732 112.81C183.856 106.936 187.733 101.171 191.308 95.5726L187.094 92.8818C183.563 98.4114 179.727 104.115 175.64 109.938L179.732 112.81ZM194.078 91.1699C195.955 88.1388 197.737 85.1612 199.414 82.2467L195.08 79.7533C193.432 82.6168 191.679 85.5478 189.827 88.5372L194.078 91.1699ZM199.727 81.315C200.278 76.9783 200.725 72.8927 201.081 69.0403L196.102 68.5806C195.752 72.373 195.311 76.4018 194.767 80.6851L199.727 81.315ZM201.587 62.885C202.288 53.0913 202.357 44.946 202.02 38.0918L197.026 38.3375C197.352 44.9646 197.289 52.9067 196.6 62.5278L201.587 62.885ZM201.576 31.8667C201.119 27.0443 200.451 22.972 199.69 19.4689L194.804 20.5311C195.523 23.8365 196.16 27.7116 196.599 32.3388L201.576 31.8667Z" fill="#FB5252"/>
<circle cx="102.5" cy="200.5" r="14.5" fill="#FB5252"/>
<circle cx="197.5" cy="80.5" r="14.5" fill="#FB5252"/>
<circle cx="193.5" cy="14.5" r="14.5" fill="#FB5252"/>
<circle cx="14.5" cy="268.5" r="14.5" fill="#FB5252"/>
</svg>
