<svg width="52" height="68" viewBox="0 0 52 68" fill="none" xmlns="http://www.w3.org/2000/svg">
<path d="M25 47L25.416 47.2774L25 47ZM48.5 19.5L48.0169 19.3712L48.5 19.5ZM3.27362 64.9185C4.0527 64.4091 5.14515 63.7036 6.42537 62.861L5.87558 62.0256C4.5956 62.8681 3.51304 63.5672 2.72638 64.0815L3.27362 64.9185ZM8.00046 61.8167C9.88805 60.5556 12.0434 59.0777 14.1995 57.5026L13.6096 56.6952C11.4685 58.2593 9.32544 59.7288 7.44491 60.9853L8.00046 61.8167ZM15.7184 56.3759C17.8057 54.8027 19.8397 53.1594 21.5702 51.5573L20.8908 50.8235C19.1938 52.3946 17.1885 54.0156 15.1165 55.5774L15.7184 56.3759ZM22.9408 50.2297C23.9365 49.2155 24.7869 48.2211 25.416 47.2774L24.584 46.7226C24.0018 47.5959 23.1975 48.5408 22.2272 49.5292L22.9408 50.2297ZM25.416 47.2774C25.995 46.4089 26.7378 45.4636 27.6058 44.4565L26.8483 43.8036C25.9648 44.8287 25.1938 45.808 24.584 46.7226L25.416 47.2774ZM28.8047 43.1101C30.304 41.4737 32.0453 39.7228 33.8707 37.9156L33.1672 37.205C31.3407 39.0131 29.5844 40.7788 28.0674 42.4346L28.8047 43.1101ZM35.1651 36.6374C36.8907 34.9358 38.6551 33.1992 40.3212 31.4828L39.6036 30.7863C37.9467 32.4932 36.1907 34.2217 34.463 35.9253L35.1651 36.6374ZM41.585 30.1632C43.3956 28.2446 45.0479 26.3582 46.3443 24.5805L45.5364 23.9913C44.2758 25.7198 42.6561 27.5713 40.8577 29.4769L41.585 30.1632ZM47.389 23.0451C48.1359 21.8543 48.696 20.7056 48.9831 19.6288L48.0169 19.3712C47.7651 20.3155 47.2597 21.3694 46.5419 22.5138L47.389 23.0451ZM48.9831 19.6288C49.2779 18.5234 49.4716 17.4045 49.5905 16.2908L48.5961 16.1847C48.4818 17.255 48.2965 18.3225 48.0169 19.3712L48.9831 19.6288ZM49.717 14.6058C49.8233 12.2595 49.6525 9.96646 49.4504 7.90756L48.4552 8.00522C48.656 10.051 48.821 12.2871 48.7181 14.5605L49.717 14.6058ZM49.2803 6.25304C49.152 5.02942 49.0392 3.92974 48.9996 2.97918L48.0004 3.02082C48.0416 4.00863 48.1582 5.14087 48.2858 6.35734L49.2803 6.25304Z" fill="#FB5252"/>
<circle cx="24" cy="49" r="3" fill="#FB5252"/>
<circle cx="3" cy="65" r="3" fill="#FB5252"/>
<circle cx="48" cy="3" r="3" fill="#FB5252"/>
<circle cx="49" cy="19" r="3" fill="#FB5252"/>
</svg>
