<svg width="31" height="31" viewBox="0 0 31 31" fill="none" xmlns="http://www.w3.org/2000/svg">
<path d="M15.5 2.27344C11.9078 2.27344 11.4574 2.28866 10.0466 2.35303C8.63883 2.4173 7.67734 2.64085 6.83598 2.96784C5.96621 3.30586 5.22859 3.75812 4.49328 4.49343C3.75798 5.22873 3.30572 5.96635 2.9677 6.83612C2.64071 7.67743 2.41715 8.63892 2.35289 10.0467C2.28852 11.4575 2.27335 11.9079 2.27335 15.5001C2.27335 19.0922 2.28852 19.5426 2.35289 20.9534C2.41715 22.3612 2.64071 23.3227 2.9677 24.164C3.30572 25.0338 3.75798 25.7714 4.49328 26.5067C5.22859 27.242 5.96621 27.6943 6.83598 28.0323C7.67734 28.3593 8.63883 28.5829 10.0466 28.6471C11.4574 28.7115 11.9078 28.7267 15.5 28.7267C19.0921 28.7267 19.5425 28.7115 20.9533 28.6471C22.3611 28.5829 23.3226 28.3593 24.1639 28.0323C25.0337 27.6943 25.7713 27.242 26.5066 26.5067C27.242 25.7714 27.6942 25.0338 28.0322 24.164C28.3592 23.3227 28.5828 22.3612 28.647 20.9534C28.7114 19.5426 28.7266 19.0922 28.7266 15.5001C28.7266 11.9079 28.7114 11.4575 28.647 10.0467C28.5828 8.63892 28.3592 7.67743 28.0322 6.83612C27.6942 5.96635 27.242 5.22873 26.5066 4.49343C25.7713 3.75812 25.0337 3.30586 24.1639 2.96784C23.3226 2.64085 22.3611 2.4173 20.9533 2.35303C19.5425 2.28866 19.0921 2.27344 15.5 2.27344ZM15.5 4.65666C19.0316 4.65666 19.45 4.6701 20.8447 4.73374C22.1342 4.79259 22.8346 5.00806 23.3006 5.18915C23.918 5.42909 24.3586 5.71575 24.8215 6.17857C25.2843 6.64138 25.5709 7.08204 25.8109 7.69938C25.992 8.16545 26.2075 8.86579 26.2663 10.1554C26.3299 11.5501 26.3434 11.9684 26.3434 15.5001C26.3434 19.0317 26.3299 19.4501 26.2663 20.8447C26.2075 22.1343 25.992 22.8347 25.8109 23.3007C25.5709 23.9181 25.2843 24.3587 24.8215 24.8215C24.3586 25.2844 23.918 25.571 23.3006 25.811C22.8346 25.9921 22.1342 26.2076 20.8447 26.2664C19.4502 26.33 19.0319 26.3435 15.5 26.3435C11.9681 26.3435 11.5498 26.33 10.1553 26.2664C8.86569 26.2076 8.16535 25.9921 7.69928 25.811C7.0819 25.571 6.64129 25.2844 6.17843 24.8215C5.71561 24.3587 5.42894 23.9181 5.18906 23.3007C5.00792 22.8347 4.79245 22.1343 4.73359 20.8447C4.66996 19.4501 4.65652 19.0317 4.65652 15.5001C4.65652 11.9684 4.66996 11.5501 4.73359 10.1554C4.79245 8.86579 5.00792 8.16545 5.18906 7.69938C5.42894 7.08204 5.71561 6.64138 6.17843 6.17857C6.64129 5.71575 7.0819 5.42909 7.69928 5.18915C8.16535 5.00806 8.86569 4.79259 10.1553 4.73374C11.55 4.6701 11.9683 4.65666 15.5 4.65666Z" fill="black"/>
<path d="M15.5 19.9089C13.065 19.9089 11.0911 17.935 11.0911 15.5001C11.0911 13.0651 13.065 11.0912 15.5 11.0912C17.9349 11.0912 19.9088 13.0651 19.9088 15.5001C19.9088 17.935 17.9349 19.9089 15.5 19.9089ZM15.5 8.70801C11.7488 8.70801 8.70792 11.7489 8.70792 15.5001C8.70792 19.2512 11.7488 22.2921 15.5 22.2921C19.2511 22.2921 22.292 19.2512 22.292 15.5001C22.292 11.7489 19.2511 8.70801 15.5 8.70801Z" fill="black"/>
<path d="M24.1476 8.43971C24.1476 9.3163 23.4369 10.0269 22.5603 10.0269C21.6838 10.0269 20.9732 9.3163 20.9732 8.43971C20.9732 7.56312 21.6838 6.85254 22.5603 6.85254C23.4369 6.85254 24.1476 7.56312 24.1476 8.43971Z" fill="black"/>
</svg>
