<svg width="31" height="27" viewBox="0 0 31 27" fill="none" xmlns="http://www.w3.org/2000/svg">
<path d="M28.3218 7.62504C28.0141 6.57481 27.1073 5.74783 25.9558 5.46713C23.8686 4.95703 15.5 4.95703 15.5 4.95703C15.5 4.95703 7.13138 4.95703 5.04417 5.46713C3.89289 5.74783 2.98597 6.57481 2.67826 7.62504C2.11914 9.52852 2.11914 13.5001 2.11914 13.5001C2.11914 13.5001 2.11914 17.4717 2.67826 19.375C2.98597 20.4252 3.89289 21.2524 5.04417 21.5331C7.13138 22.043 15.5 22.043 15.5 22.043C15.5 22.043 23.8686 22.043 25.9558 21.5331C27.1073 21.2524 28.0141 20.4252 28.3218 19.375C28.8809 17.4717 28.8809 13.5001 28.8809 13.5001C28.8809 13.5001 28.8809 9.52852 28.3218 7.62504ZM12.8237 17.1615V9.83877L19.7765 13.5001L12.8237 17.1615Z" fill="black"/>
</svg>
